<svg width="124" height="48" viewBox="0 0 124 48" fill="none" xmlns="http://www.w3.org/2000/svg">
<path d="M15.3969 17.6504V21.7502H25.195C24.8951 24.0501 24.1286 25.7334 22.9621 26.9167C21.5291 28.3499 19.2962 29.9165 15.3969 29.9165C9.3647 29.9165 4.64893 25.0501 4.64893 19.017C4.64893 12.9839 9.3647 8.11747 15.3969 8.11747C18.6463 8.11747 21.0292 9.40074 22.7788 11.0507L25.6616 8.16746C23.2287 5.8009 19.9627 4.00098 15.3969 4.00098C7.13179 4.00098 0.183105 10.734 0.183105 19.0003C0.183105 27.2666 7.13179 33.9997 15.3969 33.9997C19.8627 33.9997 23.2287 32.5331 25.8616 29.7999C28.5611 27.1 29.4109 23.2835 29.4109 20.2169C29.4109 19.267 29.3443 18.3837 29.1943 17.6504H15.3969ZM41.6586 14.3172C36.3096 14.3172 31.9438 18.3837 31.9438 24.0001C31.9438 29.5665 36.3096 33.683 41.6586 33.683C47.0076 33.683 51.3734 29.5832 51.3734 24.0001C51.3734 18.3837 47.0076 14.3172 41.6586 14.3172ZM41.6586 29.8665C38.7258 29.8665 36.193 27.45 36.193 24.0001C36.193 20.5169 38.7258 18.1337 41.6586 18.1337C44.5914 18.1337 47.1242 20.5169 47.1242 24.0001C47.1242 27.45 44.5914 29.8665 41.6586 29.8665ZM89.2829 16.4838H89.1329C88.1831 15.3505 86.3501 14.3172 84.0339 14.3172C79.2015 14.3172 74.9856 18.5337 74.9856 24.0001C74.9856 29.4332 79.2015 33.683 84.0339 33.683C86.3501 33.683 88.1831 32.6497 89.1329 31.4831H89.2829V32.8331C89.2829 36.5329 87.2999 38.5162 84.1172 38.5162C81.5177 38.5162 79.9014 36.6496 79.2348 35.0663L75.5355 36.5996C76.602 39.1661 79.4181 42.316 84.1172 42.316C89.0996 42.316 93.3155 39.3828 93.3155 32.2331V14.8172H89.2829V16.4838ZM84.4005 29.8665C81.4677 29.8665 79.2348 27.3666 79.2348 24.0001C79.2348 20.5836 81.4677 18.1337 84.4005 18.1337C87.3 18.1337 89.5662 20.6336 89.5662 24.0334C89.5829 27.4166 87.3 29.8665 84.4005 29.8665ZM63.3212 14.3172C57.9722 14.3172 53.6063 18.3837 53.6063 24.0001C53.6063 29.5665 57.9722 33.683 63.3212 33.683C68.6701 33.683 73.036 29.5832 73.036 24.0001C73.036 18.3837 68.6701 14.3172 63.3212 14.3172ZM63.3212 29.8665C60.3884 29.8665 57.8555 27.45 57.8555 24.0001C57.8555 20.5169 60.3884 18.1337 63.3212 18.1337C66.2539 18.1337 68.7868 20.5169 68.7868 24.0001C68.7868 27.45 66.2539 29.8665 63.3212 29.8665ZM96.6482 4.40096H100.831V33.683H96.6482V4.40096ZM113.745 29.8665C111.579 29.8665 110.046 28.8832 109.046 26.9333L121.993 21.5835L121.56 20.4836C120.76 18.317 118.294 14.3172 113.278 14.3172C108.296 14.3172 104.147 18.2337 104.147 24.0001C104.147 29.4332 108.246 33.683 113.745 33.683C118.177 33.683 120.744 30.9665 121.81 29.3999L118.511 27.2C117.411 28.7999 115.911 29.8665 113.745 29.8665ZM113.445 17.9504C115.161 17.9504 116.628 18.8337 117.111 20.0836L108.363 23.7001C108.363 19.6336 111.245 17.9504 113.445 17.9504Z" fill="white"/>
</svg>
