<svg width="110" height="36" viewBox="0 0 110 36" fill="none" xmlns="http://www.w3.org/2000/svg">
<path d="M24.8627 19.1878C25.2338 19.0022 25.642 18.7796 26.013 18.594C26.1615 18.5198 26.681 18.3342 26.7552 18.1857C26.7923 18.1115 26.7552 17.8888 26.7552 17.7775V3.52603C26.7552 3.48891 26.7923 3.22912 26.7552 3.19201C26.7181 3.15489 26.4212 3.19201 26.3841 3.19201H25.5677C25.2709 3.19201 25.308 3.22912 25.1224 3.4518C24.4174 4.37963 23.7123 5.30746 23.0073 6.2724C22.6733 6.71776 22.3393 7.12601 22.0424 7.57137C21.8198 7.86827 21.8198 7.90539 21.4116 7.90539L21.5229 5.45591C21.56 4.8621 21.56 4.26829 21.5971 3.67448C21.5971 3.4518 21.6342 3.22912 21.6342 3.00644C21.6342 2.93221 21.5971 2.70954 21.6342 2.67242C21.7085 2.56108 22.3764 2.63531 22.562 2.63531H36.4405C36.5147 2.63531 36.8487 2.5982 36.9229 2.63531C36.9971 2.67242 36.96 2.8951 36.96 3.00644C36.9971 3.48891 36.9971 4.0085 37.0343 4.49097C37.0714 5.56725 37.1085 6.60642 37.1827 7.68271V7.90539C36.9971 7.90539 36.8487 7.9425 36.7003 7.83116C36.5518 7.71982 36.4405 7.49714 36.3292 7.34869C35.8839 6.75488 35.4386 6.12395 34.9562 5.53014L33.6203 3.74871C33.5461 3.63737 33.4347 3.37757 33.2863 3.30335C33.175 3.22912 32.9523 3.26623 32.8039 3.26623H32.2102C32.1359 3.26623 31.8391 3.22912 31.7649 3.26623C31.7277 3.30335 31.7649 3.30335 31.7277 3.37757C31.6535 3.67448 31.7277 4.04561 31.7277 4.34252V17.2579C31.7277 17.5177 31.6535 17.8888 31.7277 18.1486C31.802 18.4084 32.3957 18.594 32.6555 18.7053C32.9152 18.8538 33.3605 18.9651 33.5832 19.1878C33.6574 19.262 33.7316 19.6332 33.6574 19.7445C33.6203 19.7816 33.4347 19.7445 33.3976 19.7445H25.2338C25.1595 19.7445 24.8998 19.7816 24.8627 19.7445C24.8256 19.596 24.8627 19.2991 24.8627 19.1878ZM38.6299 18.5198V2.78376C38.6299 2.56108 38.7041 2.22706 38.6299 2.00438C38.5557 1.74459 38.1104 1.70748 37.8506 1.59614C37.7022 1.55903 37.2198 1.44769 37.1456 1.29923V1.00233H37.2569C37.4053 0.928101 37.7022 0.928101 37.8877 0.890988C38.2217 0.816762 38.5557 0.779648 38.8526 0.705422C39.5947 0.556969 40.374 0.408516 41.1162 0.297177C41.5615 0.22295 42.0068 0.11161 42.4521 0.0373841C42.5634 0.0373841 43.0087 -0.0368424 43.0458 0.0373841C43.0829 0.0744973 43.0458 0.22295 43.0458 0.260063V7.9425C44.4559 6.5322 46.9051 5.75282 48.8719 6.23529C50.5789 6.64354 51.1355 8.23941 51.1355 9.87239C51.1726 11.9507 51.1355 13.992 51.1355 16.0703V17.7404C51.1355 17.926 51.0613 18.3713 51.1355 18.5569C51.1726 18.6311 51.321 18.6682 51.3952 18.7424C51.655 18.8909 51.9519 19.0394 52.2116 19.1878C52.2487 19.2249 52.3601 19.262 52.3601 19.2991C52.3972 19.3363 52.3972 19.6703 52.3601 19.7074C52.3229 19.7816 52.3229 19.7445 52.2116 19.7445C51.8034 19.8187 51.3581 19.7445 50.987 19.7445H45.6434C45.6063 19.7445 45.4208 19.7816 45.3837 19.7445C45.3465 19.7074 45.3465 19.2991 45.3837 19.262C45.495 19.1136 45.9403 18.9651 46.0887 18.8538C46.2 18.7796 46.534 18.6682 46.6082 18.5569C46.6825 18.4455 46.6082 18.0373 46.6082 17.926V16.4043C46.6082 14.2517 46.6453 12.0621 46.6082 9.9095C46.6082 9.27858 46.4969 8.53631 45.8661 8.20229C45.5321 8.01673 45.0868 7.97961 44.7157 7.97961C44.4188 7.97961 44.122 8.05384 43.8622 8.12807C43.6396 8.20229 43.2314 8.35075 43.0829 8.53631C42.9716 8.68476 43.0458 8.90744 43.0458 9.09301V17.8517C43.0458 18.0373 42.9716 18.4084 43.0458 18.5569C43.0829 18.6311 43.2314 18.7053 43.3427 18.7424C43.6025 18.8909 43.9364 19.0394 44.1962 19.1878C44.2333 19.2249 44.3075 19.2249 44.3075 19.262C44.3446 19.2991 44.3446 19.6332 44.3075 19.6703C44.2704 19.7074 44.2333 19.7074 44.1591 19.7074C43.7509 19.7445 43.3056 19.7074 42.8974 19.7074H37.5538C37.5167 19.7074 37.3311 19.7445 37.294 19.7074C37.2569 19.6703 37.294 19.2991 37.3311 19.2249C37.4424 19.0765 37.8506 18.928 37.9991 18.8538C38.2588 18.7424 38.4444 18.6311 38.6299 18.5198ZM56.2564 13.3981C56.3307 15.0311 56.8502 16.8497 58.3345 17.7404C59.1138 18.1857 60.0786 18.3342 60.9692 18.26C62.0454 18.1486 62.936 17.629 63.8637 17.1466C63.8637 17.295 63.9008 17.5548 63.8637 17.7033C63.7895 17.8517 63.6039 18.0373 63.4926 18.1486C63.3442 18.2971 63.1586 18.4827 62.9731 18.6311C62.3422 19.1507 61.6372 19.5218 60.895 19.7816C59.4849 20.2641 57.8521 20.227 56.4049 19.8558C55.2545 19.5589 54.2155 19.0022 53.4362 18.1115C52.6569 17.2208 52.2116 16.0703 52.0261 14.8827C51.6179 12.3219 52.1003 9.38992 54.2155 7.68271C56.0709 6.19818 59.0396 5.90127 61.229 6.79199C63.9008 7.86827 64.3461 10.9116 64.3461 13.4353H57.2584C56.9244 13.3981 56.5904 13.3981 56.2564 13.3981ZM56.1822 12.7672C56.9244 12.7301 57.6666 12.693 58.4458 12.6188C58.8911 12.5817 59.3736 12.5817 59.8189 12.5445C59.8931 12.5445 60.0786 12.5445 60.1528 12.5074C60.2642 12.4332 60.1899 11.6909 60.1899 11.5425C60.1528 10.2064 60.1157 8.57342 59.3364 7.42291C58.7798 6.60642 57.9263 6.75488 57.4068 7.49714C56.3307 8.94456 56.1822 11.0971 56.1822 12.7672ZM0 26.3135C0 24.2352 0.408193 22.0826 1.55856 20.3383C2.67181 18.6311 4.45302 17.5177 6.38266 16.961C8.72049 16.293 11.3181 16.3672 13.7301 16.8126C14.2497 16.9239 14.7692 17.0352 15.2516 17.1837C15.3258 17.2208 15.6598 17.295 15.6969 17.3693V17.4806C15.8082 17.926 15.734 18.4827 15.734 18.928C15.7711 20.0785 15.7711 21.2661 15.8082 22.4167C15.6598 22.4167 15.4 22.4538 15.2887 22.4167C15.2145 22.3795 15.1403 22.194 15.1031 22.1197C14.8063 21.6744 14.5094 21.229 14.2497 20.7466C13.6188 19.7445 12.9509 18.7424 12.32 17.7404C11.986 17.1837 11.0583 17.1837 10.4646 17.1837C9.79664 17.1837 9.12868 17.295 8.57206 17.629C7.31037 18.4084 6.71663 19.9301 6.38266 21.3033C5.86314 23.4929 5.90025 25.794 6.01157 28.0208C6.1229 29.728 6.27133 31.5465 6.93928 33.1053C7.34748 34.0702 8.05254 34.9238 9.12868 35.1465C9.46266 35.2207 9.79664 35.2207 10.1677 35.1836C10.3904 35.1465 11.1697 35.1094 11.281 34.8867C11.3181 34.8125 11.281 34.6269 11.281 34.5527V28.4661C11.281 28.2063 11.3552 28.095 11.1325 27.9465C10.8728 27.7981 10.5759 27.6496 10.3162 27.4641C10.1306 27.3527 9.75953 27.2414 9.6482 27.0929C9.57399 27.0187 9.53688 26.6104 9.61109 26.5362C9.6482 26.462 9.6482 26.4991 9.75953 26.4991C10.0935 26.4249 10.5388 26.4991 10.8728 26.4991H16.6246C16.9957 26.4991 17.4039 26.462 17.775 26.4991H17.9234C17.9605 26.5362 17.9605 27.0558 17.9234 27.13C17.8492 27.2414 17.4781 27.3898 17.3297 27.4641C17.0699 27.6125 16.773 27.761 16.5133 27.9465C16.2164 28.095 16.2535 28.095 16.2535 28.429V34.4785C16.2535 34.5527 16.2906 34.7382 16.2535 34.8125C16.1793 34.998 15.4 35.1094 15.1774 35.1836C14.5465 35.3692 13.8786 35.5176 13.2106 35.629C11.9118 35.8516 10.613 35.9259 9.31423 35.8888C7.23615 35.8145 5.04675 35.3692 3.33976 34.1073C1.85542 33.031 0.890603 31.3981 0.445302 29.6166C0.111325 28.5774 0 27.4269 0 26.3135ZM17.107 22.9362C17.107 22.862 17.0699 22.5651 17.107 22.528C17.1441 22.4909 17.1812 22.528 17.2183 22.4909C17.441 22.3795 17.7379 22.3795 17.9976 22.3424C18.8511 22.194 19.7046 22.0455 20.5952 21.8971C21.2632 21.7857 21.9311 21.6373 22.562 21.563C22.7475 21.5259 22.9701 21.5259 23.1557 21.6002C23.3412 21.6373 23.267 21.6002 23.3041 21.7486C23.3783 22.194 23.3041 22.7136 23.3041 23.1589V30.9156C23.3041 31.8434 23.0444 33.5506 23.935 34.1073C24.3803 34.4042 25.0111 34.4042 25.5306 34.2929C25.9388 34.2187 26.7181 33.9217 26.8665 33.4764C26.9036 33.3651 26.8665 33.2166 26.8665 33.1053V24.0125C26.8665 23.9383 26.9036 23.7156 26.8665 23.6414C26.7552 23.5301 26.3841 23.4187 26.2728 23.3816C26.0501 23.3074 25.8646 23.196 25.642 23.1218C25.5677 23.0847 25.308 23.0476 25.2709 22.9734C25.2338 22.9362 25.2338 22.6022 25.2709 22.5651C25.308 22.528 25.308 22.5651 25.3451 22.528C25.5306 22.4167 25.8646 22.4538 26.0501 22.4167C27.5716 22.1569 29.1301 21.8228 30.6887 21.6002C30.8742 21.563 31.0598 21.563 31.2453 21.6002C31.4309 21.6373 31.3567 21.563 31.3938 21.7486C31.468 22.1197 31.3938 22.6393 31.3938 23.0476V33.7362C31.3938 33.8475 31.3567 34.0331 31.3938 34.1815C31.4309 34.2929 31.3938 34.2558 31.5793 34.33C31.9504 34.4785 32.3586 34.664 32.7297 34.8125C32.841 34.8496 32.8781 34.8496 32.9152 34.9238C32.9523 34.998 32.9523 35.2578 32.9152 35.2578C32.841 35.3321 32.4699 35.2949 32.3957 35.3321C31.5793 35.4434 30.7629 35.5176 29.9094 35.629C29.1673 35.7032 28.4251 35.8145 27.72 35.8888C27.5716 35.9259 27.4232 35.9259 27.2747 35.8888C27.2005 35.8888 26.9779 35.8888 26.9408 35.8516C26.9036 35.7774 26.9408 35.4805 26.9408 35.4063V34.7754C26.9408 34.664 27.015 34.3671 26.9408 34.2558C26.8665 34.1444 26.7181 34.2929 26.6068 34.3671C26.3099 34.6269 25.9759 34.8867 25.642 35.0723C24.4174 35.8145 22.8959 36.1485 21.4858 35.8516C20.4468 35.629 19.5562 35.0351 19.1109 34.0331C18.7769 33.3279 18.7027 32.5486 18.7027 31.8063V24.0125C18.7027 23.9383 18.7398 23.7156 18.7027 23.6414C18.6285 23.5301 18.1831 23.4187 18.0718 23.3445C17.7007 23.196 17.4039 23.0847 17.107 22.9362ZM52.1003 21.5259C52.1745 21.5259 52.5085 21.5259 52.5456 21.6002C52.5827 21.6373 52.5456 21.8971 52.5456 21.9342V25.2001C52.5456 25.3115 52.5085 25.4971 52.5456 25.6084V25.6826C52.694 25.8311 52.7311 25.3486 52.7683 25.3115C53.1022 23.9383 53.7331 22.3424 55.1432 21.7857C55.403 21.6744 55.6627 21.6373 55.9225 21.6002C56.1451 21.6002 56.776 21.5259 56.8873 21.7115C56.9244 21.7857 56.8873 21.9713 56.8873 22.0455V25.8311C55.9967 25.6455 54.9948 25.6826 54.1413 25.8682C53.7331 25.9424 53.362 26.0537 52.9909 26.2393C52.8054 26.3135 52.7682 26.2764 52.7311 26.4249C52.694 26.5733 52.7311 26.8331 52.7311 26.9816V34.1444C52.7311 34.2187 52.694 34.33 52.7311 34.4042C52.8054 34.5156 53.0651 34.5898 53.1764 34.6269C53.362 34.7382 53.5846 34.8496 53.7702 34.9609C53.8444 34.998 53.9557 35.0351 53.9928 35.1094C54.0299 35.1465 54.0299 35.5918 53.9928 35.629C53.9557 35.6661 53.7331 35.629 53.6589 35.629H47.4988C47.3133 35.629 46.9793 35.7032 46.8309 35.629H46.7196C46.6825 35.5918 46.7196 35.1836 46.7196 35.1465C46.7938 34.9238 47.2762 34.7754 47.4988 34.664C47.6473 34.5898 47.9441 34.4785 48.0184 34.33C48.0555 34.2558 48.0184 34.0331 48.0184 33.9589V23.6414C48.0184 23.6043 48.0555 23.4187 48.0184 23.3816C47.9813 23.3445 47.7957 23.3074 47.7215 23.3074C47.4988 23.2331 47.2762 23.1589 47.0535 23.1218C46.8309 23.0476 46.2743 23.0105 46.4598 22.6393C46.4969 22.528 46.6453 22.5651 46.7938 22.528C48.4266 22.2311 50.0222 21.9342 51.655 21.6373C51.8034 21.563 51.9519 21.563 52.1003 21.5259ZM66.0902 21.86V18.0373C66.0902 17.926 66.1273 17.7033 66.0902 17.5919C66.0531 17.5177 65.9046 17.4806 65.7933 17.4435C65.4965 17.3321 65.1996 17.2208 64.8656 17.1095C64.643 17.0352 64.5316 17.0723 64.5316 16.8126C64.5316 16.5899 64.4945 16.6641 64.6801 16.627C65.0883 16.4785 65.5707 16.4785 65.9789 16.4043C67.2034 16.1816 68.3909 15.959 69.6155 15.7363C69.8753 15.6992 70.135 15.6249 70.3948 15.662C70.6916 15.6992 70.7288 15.6249 70.7288 15.8847C70.7659 16.4785 70.7288 17.1095 70.7288 17.7033V33.9589C70.7288 34.1073 70.6916 34.1073 70.803 34.1815C71.0256 34.33 71.3967 34.4042 71.6194 34.4785C71.7678 34.5156 72.176 34.5898 72.2502 34.7011C72.2873 34.7382 72.2873 35.1465 72.2502 35.1836C72.2131 35.2207 71.9904 35.2207 71.9533 35.2207C71.4338 35.2949 70.9514 35.3692 70.4319 35.4063C69.2815 35.5547 68.1312 35.7032 66.9437 35.8516C66.7581 35.8888 66.3128 35.963 66.2386 35.8145C66.1644 35.6661 66.2386 35.1836 66.2386 35.0351C66.2386 34.9238 66.3128 34.4413 66.2386 34.3671C66.1644 34.2929 65.348 35.0351 65.2367 35.1094C64.7914 35.4063 64.309 35.629 63.7895 35.7774C62.9731 36.0001 62.0454 36.0001 61.229 35.8145C57.6666 34.998 56.9244 30.7671 57.2213 27.6867C57.3697 26.0537 57.8892 24.4208 59.0025 23.2331C60.0415 22.1569 61.4516 21.6002 62.8989 21.4888C64.0121 21.3775 65.0883 21.4517 66.0902 21.86ZM66.0902 33.6991V22.862C66.0902 22.6393 66.0531 22.6022 65.7933 22.4538C65.2738 22.1569 64.6059 22.0455 64.0492 22.2682C63.1957 22.6022 62.7875 23.6043 62.5649 24.4208C62.1196 25.9053 62.0825 27.5012 62.1196 29.0599C62.1567 30.396 62.1938 32.029 62.936 33.2166C63.6039 34.2558 65.1254 34.5156 66.0902 33.6991ZM78.3731 21.5259C78.5586 21.563 78.7813 21.4888 78.8555 21.6744C78.8926 21.7857 78.8555 22.0455 78.8555 22.1569V33.7733C78.8555 33.9218 78.8184 34.1444 78.8555 34.2929C78.8926 34.4413 79.041 34.4785 79.1895 34.5527C79.4121 34.664 79.5977 34.7754 79.8203 34.8867C79.8945 34.9238 80.1172 34.998 80.1543 35.1094C80.1543 35.1465 80.1914 35.5918 80.1543 35.629H80.043C79.8203 35.6661 79.5235 35.629 79.2637 35.629H73.6232C73.4748 35.629 73.0666 35.7032 72.9553 35.629C72.881 35.5918 72.8439 35.1465 72.9181 35.0723C72.9924 34.9609 73.2521 34.8867 73.3635 34.8496C73.5861 34.7382 73.8088 34.5898 74.0314 34.4785C74.2169 34.3671 74.1798 34.4042 74.1798 34.2558C74.2541 33.6991 74.1798 33.0681 74.1798 32.5114V24.2352C74.1798 24.0868 74.2169 23.827 74.1798 23.6785C74.1427 23.5301 73.9572 23.5301 73.8088 23.4558C73.549 23.3445 73.3263 23.2703 73.0666 23.1589C72.9924 23.1218 72.6955 23.0847 72.6213 22.9734C72.5842 22.9362 72.5842 22.5651 72.6213 22.528C72.6584 22.4909 72.7326 22.528 72.7697 22.4909C73.0666 22.3795 73.4006 22.3795 73.7345 22.3053C74.2169 22.2311 74.6622 22.1197 75.1447 22.0455C76.0724 21.8971 76.963 21.7115 77.8907 21.563C78.0762 21.6002 78.2247 21.563 78.3731 21.5259ZM78.8926 18.0744C78.8184 20.3012 75.8126 21.2661 74.4396 19.5218C73.8088 18.7053 73.7716 17.5919 74.3283 16.7383C74.8849 15.8847 75.961 15.5136 76.963 15.7363C78.0762 15.959 78.8926 16.9239 78.8926 18.0744ZM95.1461 34.3671V23.7156C95.1461 23.6785 95.1832 23.4929 95.1461 23.4558C95.109 23.3816 94.8864 23.3445 94.8121 23.3445L94.1442 23.1218C94.0329 23.0847 93.736 23.0476 93.6618 22.9362C93.5876 22.862 93.6247 22.6764 93.6247 22.5651C93.6247 22.3424 93.6989 22.3795 93.9215 22.3424L96.3707 21.8971L98.8199 21.4517C98.9683 21.4146 99.0796 21.3775 99.2281 21.3775C99.3023 21.3775 99.6734 21.3775 99.7476 21.4146C99.7847 21.4517 99.7476 21.6744 99.7476 21.7486V22.4538C99.7476 22.5651 99.6734 22.8991 99.7476 23.0105C99.8218 23.1589 99.9702 23.0105 100.082 22.8991C100.416 22.6393 100.75 22.4167 101.121 22.2311C102.456 21.4888 104.052 21.1548 105.574 21.3775C106.613 21.5259 107.466 22.0826 107.837 23.0847C108.097 23.7898 108.134 24.5321 108.134 25.2744V33.7362C108.134 33.8846 108.097 34.1444 108.134 34.2929C108.171 34.4413 108.283 34.4785 108.468 34.5527C108.654 34.664 108.876 34.7754 109.062 34.8867C109.136 34.9238 109.396 34.998 109.433 35.1094C109.47 35.1836 109.47 35.5547 109.433 35.5918C109.396 35.6661 109.47 35.5918 109.359 35.629C109.21 35.7032 108.876 35.629 108.691 35.629H103.384C103.162 35.629 102.308 35.7403 102.197 35.5918C102.16 35.5547 102.16 35.1465 102.197 35.0723C102.234 34.998 102.456 34.9238 102.531 34.8867C102.753 34.7754 102.939 34.664 103.162 34.5527C103.236 34.5156 103.458 34.4413 103.496 34.3671C103.533 34.2929 103.496 34.1444 103.496 34.0702V25.6455C103.496 25.0517 103.533 24.3837 103.162 23.8641C102.865 23.4187 102.345 23.3074 101.826 23.2703C101.417 23.2703 101.046 23.3074 100.675 23.4187C100.49 23.4929 99.9331 23.6414 99.8218 23.8641C99.7847 23.9383 99.8218 24.0867 99.8218 24.161V33.7733C99.8218 33.8846 99.7847 34.1444 99.8218 34.2558C99.8589 34.4042 100.082 34.4413 100.193 34.5156C100.378 34.6269 100.601 34.7382 100.787 34.8496C100.861 34.8867 101.009 34.9609 101.046 34.998C101.083 35.0351 101.083 35.4805 101.046 35.5176C101.046 35.5547 101.009 35.5176 100.972 35.5176C100.824 35.5918 100.453 35.5176 100.304 35.5176H94.07C93.8844 35.5176 93.8473 35.5547 93.8102 35.4434C93.7731 35.3692 93.7731 35.0351 93.8102 34.9609C93.8473 34.8867 94.07 34.8125 94.1442 34.7754C94.5153 34.7382 94.8121 34.5527 95.1461 34.3671ZM87.2791 27.5383C87.2791 26.5733 87.3162 25.5713 87.242 24.5692C87.1307 23.4929 86.8338 22.3053 85.6093 22.0826C85.2382 22.0084 84.5702 21.8971 84.3105 22.194C84.0507 22.4538 83.8652 22.8249 83.6425 23.1218L81.75 25.6826C81.6386 25.8311 81.5273 26.128 81.3789 26.2022C81.3418 26.2393 80.9707 26.2393 80.9707 26.2022C80.9336 26.1651 80.9707 25.9053 80.9707 25.8311V22.8249C80.9707 22.7136 80.9336 22.528 80.9707 22.4167C81.0449 22.2311 81.8613 22.1197 82.0468 22.0455C83.0859 21.7857 84.162 21.6002 85.2382 21.5259C86.7596 21.4146 88.4666 21.4517 89.8767 22.1197C90.99 22.6393 91.695 23.5672 91.8806 24.7548C91.9919 25.3486 91.9548 26.0166 91.9548 26.6104V34.0331C91.9548 34.1444 91.8806 34.4413 91.9548 34.5156C91.9919 34.5527 92.1774 34.5898 92.2146 34.5898C92.5114 34.664 92.7712 34.7382 93.068 34.8125C93.2536 34.8496 93.2907 34.8496 93.2907 35.0351C93.2907 35.2207 93.3278 35.2207 93.1052 35.2949C92.8454 35.4063 92.5856 35.5176 92.3259 35.5918C90.9529 36.0001 88.8006 36.1114 87.7986 34.8496C87.7244 34.7382 87.5018 34.2558 87.3904 34.2187C87.242 34.1815 86.7967 34.7754 86.6483 34.8867C86.0546 35.4063 85.2753 35.7032 84.496 35.8145C83.0488 36.0001 81.4902 35.7032 80.5996 34.4413C79.8574 33.3651 79.709 31.695 80.2656 30.5073C81.2676 28.2434 84.2362 28.0208 86.3885 27.6496C86.6483 27.6496 86.9452 27.5754 87.2791 27.5383ZM87.2791 33.6991V28.2063C86.1659 28.2805 85.0155 28.3548 84.6073 29.5795C84.3104 30.396 84.3104 31.3609 84.4218 32.2145C84.496 32.8084 84.6444 33.5506 85.2011 33.9218C85.7948 34.33 86.7967 34.2558 87.2791 33.6991ZM40.2998 27.5383C40.2998 26.5733 40.3369 25.5713 40.2627 24.5692C40.1514 23.4929 39.8545 22.3053 38.6299 22.0826C38.2588 22.0084 37.5909 21.8971 37.3311 22.194C37.0714 22.4538 36.8858 22.8249 36.6632 23.1218L34.7706 25.6826C34.6593 25.8311 34.548 26.128 34.3996 26.2022C34.3624 26.2393 33.9914 26.2393 33.9914 26.2022C33.9543 26.1651 33.9914 25.9053 33.9914 25.8311V22.862C33.9914 22.7507 33.9543 22.5651 33.9914 22.4538C34.0656 22.2682 34.8449 22.1569 35.0675 22.0826C36.1065 21.8228 37.1827 21.6373 38.2217 21.563C39.7432 21.4517 41.4502 21.4888 42.8603 22.1569C43.9735 22.6764 44.6786 23.6043 44.8641 24.7919C44.9755 25.3857 44.9384 26.0538 44.9384 26.6476V34.0702C44.9384 34.1815 44.8641 34.4785 44.9384 34.5527C44.9755 34.5898 45.161 34.6269 45.1981 34.6269C45.495 34.7011 45.7547 34.7754 46.0516 34.8496C46.2372 34.8867 46.2743 34.8867 46.2743 35.0723C46.2743 35.2578 46.3114 35.2578 46.0887 35.3321C45.829 35.4434 45.5692 35.5547 45.3094 35.629C43.9364 36.0372 41.7841 36.1485 40.7822 34.8867C40.708 34.7754 40.4853 34.2929 40.374 34.2558C40.2256 34.2187 39.7803 34.8125 39.669 34.9238C39.0752 35.4434 38.2959 35.7403 37.5167 35.8516C36.0694 36.0372 34.5109 35.7403 33.6203 34.4785C32.8781 33.4022 32.7297 31.7321 33.2863 30.5445C34.2882 28.2805 37.2569 28.0579 39.3721 27.6867C39.669 27.6496 39.9658 27.5754 40.2998 27.5383ZM40.2998 33.6991V28.2063C39.1865 28.2805 38.0362 28.3548 37.628 29.5795C37.3311 30.396 37.3311 31.3609 37.4424 32.2145C37.5167 32.8084 37.6651 33.5506 38.2217 33.9218C38.8155 34.33 39.8174 34.2558 40.2998 33.6991Z" fill="white"/>
</svg>
