<svg width="166" height="37" viewBox="0 0 166 37" fill="none" xmlns="http://www.w3.org/2000/svg">
<path d="M165.147 16.7518V12.0906H160.155V4.84445L159.987 4.90408L155.299 6.56793L155.206 6.6004V12.0912H147.806V9.03224C147.806 7.60759 148.081 6.51758 148.622 5.79101C149.16 5.07272 149.929 4.70762 150.909 4.70762C151.614 4.70762 152.344 4.90011 153.078 5.27979L153.262 5.37521V0.466488L153.176 0.429381C152.49 0.14379 151.558 0 150.403 0C148.947 0 147.625 0.367425 146.471 1.09565C145.316 1.82454 144.409 2.86585 143.772 4.18911C143.139 5.51105 142.817 7.03807 142.817 8.72776V12.0902H139.341V16.7518H142.817V36.3887H147.806V16.7518H155.206V29.2307C155.206 34.3703 157.297 36.9748 161.42 36.9748C162.097 36.9748 162.81 36.8827 163.538 36.7024C164.279 36.5172 164.784 36.3324 165.081 36.1349L165.147 36.0898V31.3852L164.944 31.5409C164.673 31.7503 164.336 31.9213 163.94 32.0485C163.544 32.1777 163.212 32.243 162.955 32.243C161.989 32.243 161.275 31.9412 160.831 31.3455C160.383 30.7445 160.155 29.6935 160.155 28.2235V16.7518H165.147ZM128.199 32.244C126.388 32.244 124.96 31.5476 123.954 30.1759C122.941 28.7973 122.428 26.8317 122.428 24.3342C122.428 21.7579 122.941 19.7412 123.954 18.3381C124.961 16.9446 126.375 16.237 128.158 16.237C129.888 16.237 131.265 16.9128 132.252 18.246C133.243 19.5865 133.747 21.587 133.747 24.1938C133.747 26.8323 133.273 28.859 132.34 30.215C131.413 31.5601 130.02 32.244 128.199 32.244ZM128.42 11.5052C124.965 11.5052 122.221 12.6793 120.264 14.9949C118.309 17.3107 117.317 20.5152 117.317 24.5208C117.317 28.3252 118.285 31.3855 120.194 33.6146C122.103 35.8447 124.701 36.9745 127.915 36.9745C131.264 36.9745 133.954 35.784 135.91 33.4364C137.865 31.0913 138.856 27.9167 138.856 24.0052C138.856 20.1411 137.927 17.0583 136.092 14.8438C134.257 12.6283 131.675 11.5052 128.42 11.5052ZM109.273 11.5052C106.922 11.5052 104.978 12.2026 103.493 13.5768C101.999 14.9597 101.241 16.7733 101.241 18.9676C101.241 20.1083 101.405 21.1218 101.727 21.9812C102.051 22.8433 102.552 23.6027 103.218 24.2398C103.879 24.8716 104.899 25.5339 106.25 26.2075C107.387 26.7495 108.235 27.208 108.773 27.5698C109.299 27.9243 109.673 28.2802 109.883 28.6274C110.088 28.9666 110.192 29.4315 110.192 30.0046C110.192 31.637 109.138 32.4315 106.969 32.4315C106.165 32.4315 105.247 32.2367 104.241 31.8524C103.243 31.4741 102.301 30.9202 101.448 30.21L101.241 30.0378V35.6085L101.317 35.6495C102.023 36.0272 102.913 36.346 103.962 36.5968C105.009 36.8479 105.961 36.9754 106.787 36.9754C109.337 36.9754 111.391 36.2751 112.89 34.8922C114.398 33.5 115.162 31.6436 115.162 29.3735C115.162 27.7355 114.751 26.331 113.94 25.1983C113.134 24.0745 111.736 23.0431 109.786 22.1313C108.233 21.4084 107.238 20.8081 106.827 20.3472C106.431 19.9023 106.23 19.2728 106.23 18.4756C106.23 17.7689 106.478 17.2031 106.988 16.7445C107.501 16.284 108.215 16.0494 109.111 16.0494C109.943 16.0494 110.793 16.2018 111.639 16.5C112.484 16.7985 113.227 17.1984 113.846 17.6874L114.05 17.8488V12.5644L113.972 12.5256C113.4 12.241 112.646 11.9978 111.73 11.8004C110.819 11.6042 109.992 11.5052 109.273 11.5052ZM88.2337 32.244C86.4232 32.244 84.9947 31.5476 83.9888 30.1759C82.9763 28.7973 82.4643 26.8323 82.4643 24.3342C82.4643 21.7579 82.9768 19.7412 83.9899 18.3381C84.9959 16.9446 86.4098 16.237 88.1937 16.237C89.9231 16.237 91.3004 16.9128 92.2872 18.246C93.2789 19.5865 93.7817 21.587 93.7817 24.1938C93.7817 26.8323 93.3083 28.859 92.3755 30.215C91.4487 31.5601 90.0562 32.244 88.2337 32.244ZM88.4563 11.5052C85.0002 11.5052 82.2557 12.6793 80.3001 14.9949C78.3448 17.3107 77.3526 20.5152 77.3526 24.5208C77.3526 28.3269 78.3211 31.3855 80.2301 33.6146C82.1389 35.8447 84.7368 36.9745 87.9509 36.9745C91.2996 36.9745 93.9897 35.784 95.9456 33.4364C97.9009 31.0913 98.892 27.9167 98.892 24.0052C98.892 20.1411 97.9621 17.0583 96.1273 14.8438C94.2914 12.6283 91.7104 11.5052 88.4563 11.5052ZM69.7787 16.2986V12.0909H64.8501V36.3887H69.7787V23.9592C69.7787 21.8457 70.1918 20.1093 71.0072 18.798C71.8123 17.5022 72.8851 16.8456 74.195 16.8456C74.639 16.8456 75.1373 16.9304 75.6769 17.0984C76.2112 17.2653 76.598 17.4462 76.8263 17.6374L77.0334 17.8113V12.0492L76.9534 12.0094C76.4946 11.7831 75.8452 11.6692 75.0235 11.6692C73.785 11.6692 72.6765 12.1307 71.7271 13.0391C70.8938 13.8379 70.2915 14.9329 69.831 16.2986H69.7787ZM56.0234 11.5052C53.7624 11.5052 51.7453 12.0674 50.03 13.176C48.3109 14.2868 46.9816 15.8728 46.077 17.8899C45.1765 19.9016 44.7191 22.2519 44.7191 24.8729C44.7191 27.1686 45.1625 29.2754 46.0388 31.1321C46.9153 32.9921 48.1561 34.4472 49.7269 35.4564C51.2953 36.4642 53.1081 36.9751 55.1151 36.9751C57.4576 36.9751 59.4575 36.4321 61.0608 35.3613L61.1254 35.3182V30.0818L60.9183 30.2574C60.1806 30.8776 59.3681 31.3681 58.507 31.7132C57.6359 32.0657 56.8416 32.244 56.1454 32.244C54.2115 32.244 52.6587 31.5423 51.5319 30.1587C50.4025 28.7735 49.8297 26.828 49.8297 24.3803C49.8297 21.917 50.4271 19.9218 51.6039 18.4498C52.7773 16.9817 54.3326 16.237 56.2268 16.237C57.8467 16.237 59.4252 16.8731 60.9188 18.1294L61.1254 18.3037V12.786L61.0588 12.7423C60.4969 12.3775 59.73 12.0763 58.7787 11.8477C57.831 11.6198 56.9042 11.5052 56.0234 11.5052ZM41.3247 12.0909H36.3958V36.3887H41.3247V12.0909ZM38.9106 1.73972C38.0995 1.73972 37.3921 2.0601 36.8107 2.69456C36.227 3.33101 35.931 4.13246 35.931 5.07802C35.931 6.00868 36.2236 6.79522 36.8015 7.41477C37.3761 8.03234 38.0857 8.34543 38.9108 8.34543C39.7359 8.34543 40.4482 8.03234 41.0296 7.41576C41.6144 6.79522 41.9113 6.00901 41.9113 5.07802C41.9113 4.16526 41.6224 3.37243 41.0536 2.72041C40.485 2.06971 39.7639 1.73972 38.9106 1.73972ZM26.6132 10.2982V36.3887H31.6432V2.48352H24.6816L15.8326 27.6672L7.24534 2.48352H0V36.3887H4.72718V10.2955H4.88946L13.9576 36.3887H17.5245L26.4509 10.2978H26.6132V10.2982Z" fill="white"/>
</svg>
