<svg width="184" height="48" viewBox="0 0 184 48" fill="none" xmlns="http://www.w3.org/2000/svg">
<g clip-path="url(#clip0_1_699)">
<path fill-rule="evenodd" clip-rule="evenodd" d="M180.634 20.7745C180.296 20.7749 179.96 20.7083 179.647 20.5787C179.334 20.4491 179.05 20.2589 178.811 20.0192C178.571 19.7794 178.382 19.4948 178.253 19.1815C178.124 18.8683 178.058 18.5327 178.059 18.194C178.059 17.5096 178.331 16.8532 178.815 16.3693C179.299 15.8853 179.955 15.6134 180.639 15.6134C181.324 15.6134 181.98 15.8853 182.464 16.3693C182.948 16.8532 183.22 17.5096 183.22 18.194C183.22 18.5333 183.153 18.8693 183.023 19.1827C182.893 19.4961 182.703 19.7809 182.462 20.0205C182.222 20.2602 181.937 20.4502 181.623 20.5796C181.31 20.709 180.974 20.7752 180.634 20.7745ZM180.634 16.0831C179.478 16.0831 178.548 17.0211 178.548 18.194C178.548 19.3681 179.478 20.3049 180.634 20.3049C181.783 20.3049 182.731 19.3669 182.731 18.194C182.731 17.0198 181.781 16.0831 180.634 16.0831ZM180.25 18.6069V19.6675H179.638V16.7205H180.805C181.378 16.7205 181.858 17.0211 181.858 17.6495C181.867 17.8324 181.816 18.0133 181.715 18.1655C181.613 18.3177 181.465 18.4331 181.292 18.4946L181.904 19.6675H181.237L180.7 18.6069H180.25ZM181.237 17.6689C181.237 17.3773 180.992 17.3024 180.757 17.3024H180.25V18.034H180.766C180.992 18.034 181.237 17.9411 181.237 17.6689ZM76.3589 34.9676L67.5334 21.7293V34.9676H63.6109V15.7722H68.1463L76.4815 28.2994V15.7722H80.4039V34.9676H76.3589ZM82.7406 28.4465C82.7406 24.5486 85.9522 21.5823 89.9236 21.5823C93.8706 21.5823 97.0331 24.4751 97.0331 28.373C97.0331 32.3199 93.8216 35.2618 89.8746 35.2618C85.9031 35.2618 82.7406 32.3935 82.7406 28.4465ZM86.6631 28.3975C86.6631 30.3832 88.1095 31.7561 89.8991 31.7561C91.6888 31.7561 93.1106 30.3832 93.1106 28.3975C93.1106 26.4363 91.6642 25.0634 89.8746 25.0634C88.085 25.0634 86.6631 26.4363 86.6631 28.3975ZM106.41 21.8764V25.6273C105.895 25.5292 105.355 25.5292 105.184 25.5292C103.345 25.5292 102.07 26.804 102.07 29.231V34.9676H98.3195V21.8764H101.948V23.7886H101.997C102.708 22.2932 104.032 21.7293 105.38 21.7293C105.674 21.7293 106.14 21.8029 106.41 21.8764ZM117.456 34.9676V33.3005H117.407C116.181 35.0901 114.22 35.2127 113.337 35.2127C109.537 35.2127 107.11 31.9277 107.11 28.3975C107.11 25.0879 109.635 21.6313 113.386 21.6313C114.146 21.6313 115.96 21.7784 117.309 23.3719H117.358V15.0122H121.158V34.9676H117.456ZM117.456 28.3975C117.456 26.4363 116.009 25.0879 114.22 25.0879C112.43 25.0879 110.984 26.4363 110.984 28.3975C110.984 30.3832 112.43 31.7561 114.22 31.7561C116.009 31.7561 117.456 30.3832 117.456 28.3975ZM129.285 34.9676L122.347 15.7722H126.637L131.614 30.3587L136.615 15.7722H140.832L133.869 34.9676H129.285ZM156.461 21.9255C156.461 26.1666 153.47 28.2014 149.45 28.2014H146.434V34.9676H142.463V15.7722H149.597C153.446 15.7722 156.461 17.8559 156.461 21.9255ZM152.465 22.0235C152.465 20.1604 150.896 19.523 149.253 19.523H146.434V24.4996H149.278C150.847 24.4996 152.465 23.8131 152.465 22.0235ZM171.208 34.9676L162.382 21.7293V34.9676H158.46V15.7722H162.995L171.33 28.2994V15.7722H175.253V34.9676H171.208ZM4.78698 43.9995C1.66704 39.6983 -0.00890371 34.5188 3.55756e-05 29.2052C3.55756e-05 15.2844 11.2616 4.00098 25.1528 4.00098C39.0452 4.00098 50.3055 15.2844 50.3055 29.2052C50.3147 34.5188 48.6387 39.6984 45.5186 43.9995L33.4377 24.3422L32.2713 26.3163L33.4545 31.8051L25.1528 17.5734L20.0175 26.2608L21.2136 31.8051L16.8614 24.3525L4.78698 43.9995Z" fill="white"/>
</g>
<defs>
<clipPath id="clip0_1_699">
<rect width="183.22" height="48" fill="white"/>
</clipPath>
</defs>
</svg>
