<svg width="115" height="48" viewBox="0 0 115 48" fill="none" xmlns="http://www.w3.org/2000/svg">
<g clip-path="url(#clip0_1_702)">
<mask id="mask0_1_702" style="mask-type:luminance" maskUnits="userSpaceOnUse" x="0" y="8" width="115" height="33">
<path d="M0 8.00146H114.391V40.0277H0V8.00146Z" fill="white"/>
</mask>
<g mask="url(#mask0_1_702)">
<path d="M17.0595 18.2743C17.0595 15.5993 15.7316 14.1947 12.5494 14.1947H8.47933V22.3988H12.5446C15.7332 22.3988 17.0595 21.0389 17.0595 18.2743ZM25.9436 18.3639C25.9436 21.6533 24.3005 23.9347 21.2175 25.6962L28.0234 39.2951H18.4945L13.055 28.0192H8.47933V39.2919H0V8.5791H13.8757C22.1839 8.5791 25.9436 12.5724 25.9436 18.3639ZM89.0218 8.65062L85.7101 15.1445H96.538V39.3586H105.069V15.1445H114.391V8.65062H89.0218ZM81.5936 8.61702H86.2332L67.9787 23.5742V18.3699L81.5936 8.61702Z" fill="white"/>
<path d="M81.5455 8.61719H86.3932L79.3537 22.3329L71.6743 25.8158L81.5455 8.61719Z" fill="white"/>
<path d="M71.6585 25.8161L79.3379 22.3332L87.7053 39.2678H78.1364L71.6585 25.8161ZM68.1358 8.6416H59.6484V39.3064H68.1358V8.6416Z" fill="white"/>
<path fill-rule="evenodd" clip-rule="evenodd" d="M42.5648 8.00146C38.1875 8.00146 34.6518 9.44135 32.0056 12.3019C29.3594 15.1625 28.0283 19.0134 28.0283 23.9698V24.0578C28.0283 29.0174 29.3541 32.9222 32.0056 35.7721C34.6598 38.6231 38.1923 40.0277 42.5648 40.0277C46.9372 40.0277 50.4746 38.6231 53.0823 35.7721C55.7338 32.92 57.0596 29.0153 57.0596 24.0578V23.9698C57.0596 19.0102 55.7333 15.1561 53.0823 12.3019C50.4746 9.44935 46.9404 8.00146 42.5648 8.00146ZM42.5232 14.241C40.7377 14.241 39.2946 15.1449 38.2131 16.9288C37.1316 18.7126 36.5892 21.122 36.5892 24.221V24.2754C36.5892 27.3759 37.1305 29.8169 38.2131 31.598C39.2962 33.3803 40.7377 34.257 42.5232 34.257C44.3086 34.257 45.7517 33.3803 46.8156 31.598C47.8796 29.8158 48.4395 27.3743 48.4395 24.2754V24.221C48.4395 21.122 47.8988 18.7126 46.8156 16.9288C45.7325 15.1449 44.3166 14.2474 42.5232 14.2474V14.241Z" fill="white"/>
</g>
</g>
<defs>
<clipPath id="clip0_1_702">
<rect width="114.391" height="48" fill="white"/>
</clipPath>
</defs>
</svg>
