<svg width="134" height="48" viewBox="0 0 134 48" fill="none" xmlns="http://www.w3.org/2000/svg">
<path d="M41.826 13.0005H48.4915L53.6573 26.8332H53.8239L58.4898 13.0005H64.822L56.8234 33.333H50.1579L41.826 13.0005ZM17.3303 18.0003H11.1647V24.8333C11.1647 25.9999 11.3314 27.4999 12.3312 28.1665C13.331 28.8332 14.8307 28.6665 15.9972 28.4998C16.6638 28.4998 16.997 28.3332 17.3303 27.9999V33.1663C16.4971 33.333 15.8306 33.4996 14.9974 33.6663C10.6648 34.1663 4.33257 33.333 4.33257 27.6665V18.0003H0V13.0005H4.33257V7.0007H11.1647V13.0005H17.3303V18.0003ZM34.8272 13.0005H40.9928V33.333H34.8272V13.0005ZM34.494 7.50068C34.494 5.66742 35.9937 4.16748 37.8267 4.16748C39.6597 4.16748 41.1595 5.66742 41.1595 7.50068C41.1595 9.33394 39.6597 10.8339 37.8267 10.8339C36.1603 10.8339 34.494 9.33394 34.494 7.50068ZM111.814 23.1667C111.814 25.8333 113.48 28.3332 116.313 28.3332C119.312 28.3332 120.812 25.9999 120.812 23.1667C120.812 20.5002 119.146 18.0003 116.313 18.0003C113.314 18.0003 111.814 20.3335 111.814 23.1667ZM106.148 23.1667C106.148 18.8336 108.481 14.6671 112.647 13.1671C116.813 11.6672 121.812 12.8338 124.478 16.3337C126.978 19.6669 127.311 24.6667 125.311 28.4998C123.312 32.4997 118.646 34.3329 114.313 33.4996C109.148 32.6663 106.148 28.1665 106.148 23.1667ZM99.4826 12.8338V15.667H99.3159C99.1493 15.5004 98.9827 15.3337 98.6494 14.8337C94.6501 11.3339 87.6513 12.0005 85.1518 17.0003C83.8187 19.5002 83.652 22.6667 83.9853 25.5C84.3186 27.9999 85.3184 30.8331 87.4847 32.333C89.9843 33.9996 93.317 34.3329 96.1498 33.1663C97.4829 32.6663 98.3161 31.6664 98.6494 31.1664V33.1663C98.6494 34.6663 98.3161 35.8329 97.4829 36.6662C95.6499 38.4994 92.3172 38.3328 89.9843 37.8328C88.8178 37.4995 87.4847 36.9995 86.3182 36.1662L83.4854 40.666C85.1518 41.8326 86.6515 42.4993 88.3179 42.9993C92.8171 44.1659 98.9827 44.1659 102.315 40.666C104.315 38.6661 104.982 35.8329 104.982 31.833V12.8338H99.4826ZM97.9828 26.8332C96.3165 28.8332 92.9837 28.8332 91.3174 26.8332C89.651 24.8333 89.651 21.3335 91.3174 19.3335C92.9837 17.3336 96.3165 17.3336 97.9828 19.3335C99.6492 21.3335 99.6492 24.8333 97.9828 26.8332C98.816 25.8333 97.1497 27.8332 97.9828 26.8332ZM18.9967 13.0005H25.3289V16.3337C25.9955 15.0004 26.8286 14.1671 27.6618 13.5004C29.6615 12.1672 32.8276 12.6671 33.1609 12.8338V18.5002C31.8278 18.1669 29.1616 17.6669 27.3286 18.8336C26.1621 19.5002 25.1623 20.5002 25.1623 25V33.4996H18.83V13.0005H18.9967ZM70.6543 25.1666C69.4878 25.9999 68.488 27.4999 69.6545 28.6665C70.8209 29.8331 72.8206 29.6665 74.1537 29.1665C75.6534 28.6665 76.8199 27.4999 76.8199 25.6666V24.3333C76.9865 24.5 72.3207 24.1667 70.6543 25.1666ZM76.9865 30.8331C76.1533 31.833 75.3202 32.6663 74.1537 33.1663C69.6545 34.9996 63.3223 33.1663 63.3223 27.6665C63.3223 21.8334 69.6545 20.6668 74.1537 20.5002H76.9865C76.9865 19.3335 76.6533 18.5002 75.8201 17.8336C74.3203 16.5003 71.9874 16.667 70.1544 17.5003C69.3212 18.0003 68.488 18.5002 67.8215 19.3335L64.4887 15.8337C65.6552 14.8337 66.9883 14.0004 68.6547 13.3338C71.3209 12.3338 74.6536 12.1672 77.3198 13.0005C79.986 13.6671 81.6524 15.8337 82.3189 18.5002C82.6522 19.8335 82.6522 21.3335 82.6522 23.0001V33.333H76.9865V30.8331Z" fill="white"/>
</svg>
